<?xml version="1.0"?>
<svg xmlns="http://www.w3.org/2000/svg" width="1200" height="1200" viewBox="0 0 1200 1200" fill="none">
  <title>BNI Dreamers — Referral Network</title>
  <defs>
    <radialGradient id="gRed" cx="35%" cy="30%" r="75%">
      <stop offset="0%" stop-color="#E8434F"></stop>
      <stop offset="55%" stop-color="#CF2030"></stop>
      <stop offset="100%" stop-color="#A8161F"></stop>
    </radialGradient>
    <radialGradient id="gMaroon" cx="35%" cy="30%" r="75%">
      <stop offset="0%" stop-color="#A8161F"></stop>
      <stop offset="60%" stop-color="#7A0D14"></stop>
      <stop offset="100%" stop-color="#560A0F"></stop>
    </radialGradient>
    <radialGradient id="gHalo" cx="50%" cy="50%" r="50%">
      <stop offset="0%" stop-color="#CF2030" stop-opacity="0.28"></stop>
      <stop offset="100%" stop-color="#CF2030" stop-opacity="0"></stop>
    </radialGradient>
    <linearGradient id="gLink" x1="0" y1="0" x2="1" y2="1">
      <stop offset="0%" stop-color="#C9A24B"></stop>
      <stop offset="100%" stop-color="#CF2030"></stop>
    </linearGradient></defs>
  <g id="halos"><circle cx="650.1" cy="816.0" r="35.1" fill="url(#gHalo)"></circle>
<circle cx="570.5" cy="1019.4" r="30.6" fill="url(#gHalo)"></circle>
<circle cx="240.0" cy="628.1" r="26.6" fill="url(#gHalo)"></circle>
</g>
  <g id="links" stroke-linecap="round"><line x1="141.0" y1="188.2" x2="372.3" y2="276.6" stroke="#CF2030" stroke-width="0.9" stroke-opacity="0.34"></line>
<line x1="1048.3" y1="787.1" x2="848.2" y2="617.3" stroke="#CF2030" stroke-width="0.9" stroke-opacity="0.33"></line>
<line x1="620.2" y1="511.2" x2="606.5" y2="662.9" stroke="#C9A24B" stroke-width="0.7" stroke-opacity="0.50"></line>
<line x1="620.2" y1="511.2" x2="568.3" y2="355.5" stroke="#CF2030" stroke-width="0.9" stroke-opacity="0.36"></line>
<line x1="568.3" y1="355.5" x2="529.8" y2="149.0" stroke="#CF2030" stroke-width="0.9" stroke-opacity="0.35"></line>
<line x1="568.3" y1="355.5" x2="372.3" y2="276.6" stroke="#CF2030" stroke-width="0.9" stroke-opacity="0.35"></line>
<line x1="650.1" y1="816.0" x2="606.5" y2="662.9" stroke="#C9A24B" stroke-width="0.7" stroke-opacity="0.50"></line>
<line x1="650.1" y1="816.0" x2="570.5" y2="1019.4" stroke="#CF2030" stroke-width="0.9" stroke-opacity="0.35"></line>
<line x1="650.1" y1="816.0" x2="769.3" y2="1038.0" stroke="#C9A24B" stroke-width="0.7" stroke-opacity="0.50"></line>
<line x1="372.3" y1="276.6" x2="529.8" y2="149.0" stroke="#CF2030" stroke-width="0.9" stroke-opacity="0.35"></line>
<line x1="372.3" y1="276.6" x2="315.3" y2="475.9" stroke="#CF2030" stroke-width="0.9" stroke-opacity="0.35"></line>
<line x1="848.2" y1="617.3" x2="988.3" y2="433.1" stroke="#CF2030" stroke-width="0.9" stroke-opacity="0.34"></line>
<line x1="848.2" y1="617.3" x2="606.5" y2="662.9" stroke="#C9A24B" stroke-width="0.7" stroke-opacity="0.50"></line>
<line x1="315.3" y1="475.9" x2="240.0" y2="628.1" stroke="#CF2030" stroke-width="0.9" stroke-opacity="0.36"></line>
<line x1="315.3" y1="475.9" x2="405.7" y2="632.7" stroke="#CF2030" stroke-width="0.9" stroke-opacity="0.35"></line>
<line x1="405.7" y1="632.7" x2="240.0" y2="628.1" stroke="#CF2030" stroke-width="0.9" stroke-opacity="0.36"></line>
<line x1="408.6" y1="1049.3" x2="570.5" y2="1019.4" stroke="#CF2030" stroke-width="0.9" stroke-opacity="0.36"></line>
<line x1="408.6" y1="1049.3" x2="200.0" y2="988.2" stroke="#C9A24B" stroke-width="0.7" stroke-opacity="0.50"></line>
<line x1="200.0" y1="988.2" x2="240.0" y2="628.1" stroke="#C9A24B" stroke-width="0.7" stroke-opacity="0.50"></line>
<line x1="769.3" y1="1038.0" x2="570.5" y2="1019.4" stroke="#C9A24B" stroke-width="0.7" stroke-opacity="0.50"></line>
<line x1="908.0" y1="167.6" x2="722.8" y2="143.5" stroke="#C9A24B" stroke-width="0.7" stroke-opacity="0.50"></line>
<line x1="908.0" y1="167.6" x2="988.3" y2="433.1" stroke="#C9A24B" stroke-width="0.7" stroke-opacity="0.50"></line>
<line x1="529.8" y1="149.0" x2="722.8" y2="143.5" stroke="#CF2030" stroke-width="0.9" stroke-opacity="0.35"></line>
<line x1="988.3" y1="433.1" x2="1048.3" y2="787.1" stroke="#CF2030" stroke-width="0.9" stroke-opacity="0.31"></line>
<line x1="606.5" y1="662.9" x2="988.3" y2="433.1" stroke="#C9A24B" stroke-width="0.7" stroke-opacity="0.50"></line>
<line x1="408.6" y1="1049.3" x2="405.7" y2="632.7" stroke="#CF2030" stroke-width="0.9" stroke-opacity="0.30"></line>
</g>
  <g id="nodes"><circle cx="141.0" cy="188.2" r="4.8" fill="url(#gMaroon)"></circle>
<circle cx="1048.3" cy="787.1" r="5.1" fill="url(#gRed)"></circle>
<circle cx="620.2" cy="511.2" r="8.3" fill="url(#gRed)"></circle>
<circle cx="620.2" cy="511.2" r="10.5" fill="none" stroke="#C9A24B" stroke-width="0.6" stroke-opacity="0.55"></circle>
<circle cx="568.3" cy="355.5" r="9.0" fill="url(#gRed)"></circle>
<circle cx="568.3" cy="355.5" r="11.2" fill="none" stroke="#C9A24B" stroke-width="0.6" stroke-opacity="0.55"></circle>
<circle cx="650.1" cy="816.0" r="8.8" fill="url(#gMaroon)"></circle>
<circle cx="650.1" cy="816.0" r="11.0" fill="none" stroke="#C9A24B" stroke-width="0.6" stroke-opacity="0.55"></circle>
<circle cx="372.3" cy="276.6" r="6.9" fill="url(#gRed)"></circle>
<circle cx="372.3" cy="276.6" r="9.1" fill="none" stroke="#C9A24B" stroke-width="0.6" stroke-opacity="0.55"></circle>
<circle cx="848.2" cy="617.3" r="4.9" fill="url(#gRed)"></circle>
<circle cx="315.3" cy="475.9" r="6.4" fill="url(#gRed)"></circle>
<circle cx="405.7" cy="632.7" r="4.9" fill="url(#gMaroon)"></circle>
<circle cx="408.6" cy="1049.3" r="6.2" fill="url(#gMaroon)"></circle>
<circle cx="200.0" cy="988.2" r="3.4" fill="#0E0E0E" stroke="#C9A24B" stroke-width="1.1"></circle>
<circle cx="200.0" cy="988.2" r="1.1" fill="#C9A24B"></circle>
<circle cx="769.3" cy="1038.0" r="5.2" fill="#0E0E0E" stroke="#C9A24B" stroke-width="1.1"></circle>
<circle cx="769.3" cy="1038.0" r="1.7" fill="#C9A24B"></circle>
<circle cx="908.0" cy="167.6" r="3.4" fill="#0E0E0E" stroke="#C9A24B" stroke-width="1.1"></circle>
<circle cx="908.0" cy="167.6" r="1.1" fill="#C9A24B"></circle>
<circle cx="529.8" cy="149.0" r="6.0" fill="url(#gMaroon)"></circle>
<circle cx="570.5" cy="1019.4" r="7.7" fill="url(#gMaroon)"></circle>
<circle cx="570.5" cy="1019.4" r="9.9" fill="none" stroke="#C9A24B" stroke-width="0.6" stroke-opacity="0.55"></circle>
<circle cx="988.3" cy="433.1" r="8.0" fill="url(#gRed)"></circle>
<circle cx="988.3" cy="433.1" r="10.2" fill="none" stroke="#C9A24B" stroke-width="0.6" stroke-opacity="0.55"></circle>
<circle cx="240.0" cy="628.1" r="6.6" fill="url(#gRed)"></circle>
<circle cx="240.0" cy="628.1" r="8.8" fill="none" stroke="#C9A24B" stroke-width="0.6" stroke-opacity="0.55"></circle>
<circle cx="722.8" cy="143.5" r="6.8" fill="url(#gMaroon)"></circle>
<circle cx="722.8" cy="143.5" r="9.0" fill="none" stroke="#C9A24B" stroke-width="0.6" stroke-opacity="0.55"></circle>
<circle cx="606.5" cy="662.9" r="3.6" fill="#0E0E0E" stroke="#C9A24B" stroke-width="1.1"></circle>
<circle cx="606.5" cy="662.9" r="1.2" fill="#C9A24B"></circle>
</g>
  <g id="labels"><line x1="579.2" y1="355.5" x2="586.2" y2="355.5" stroke="#C9A24B" stroke-width="0.8" stroke-opacity="0.8"></line>
<text x="591.2" y="359.6" text-anchor="start" font-family="&#39;JetBrains Mono&#39;,&#39;Courier New&#39;,monospace" font-size="12" letter-spacing="1.5" fill="#7A0D14">COMMERCIAL REALTOR</text>
<line x1="660.9" y1="816.0" x2="667.9" y2="816.0" stroke="#C9A24B" stroke-width="0.8" stroke-opacity="0.8"></line>
<text x="672.9" y="820.1" text-anchor="start" font-family="&#39;JetBrains Mono&#39;,&#39;Courier New&#39;,monospace" font-size="12" letter-spacing="1.5" fill="#7A0D14">INSURANCE</text>
<line x1="978.3" y1="433.1" x2="971.3" y2="433.1" stroke="#C9A24B" stroke-width="0.8" stroke-opacity="0.8"></line>
<text x="966.3" y="437.2" text-anchor="end" font-family="&#39;JetBrains Mono&#39;,&#39;Courier New&#39;,monospace" font-size="12" letter-spacing="1.5" fill="#7A0D14">SOLAR</text>
<line x1="248.7" y1="628.1" x2="255.7" y2="628.1" stroke="#C9A24B" stroke-width="0.8" stroke-opacity="0.8"></line>
<text x="260.7" y="632.2" text-anchor="start" font-family="&#39;JetBrains Mono&#39;,&#39;Courier New&#39;,monospace" font-size="12" letter-spacing="1.5" fill="#7A0D14">MODULAR FURNITURE</text>
<line x1="1041.2" y1="787.1" x2="1034.2" y2="787.1" stroke="#C9A24B" stroke-width="0.8" stroke-opacity="0.8"></line>
<text x="1029.2" y="791.2" text-anchor="end" font-family="&#39;JetBrains Mono&#39;,&#39;Courier New&#39;,monospace" font-size="12" letter-spacing="1.5" fill="#7A0D14">TOURS &amp; TRAVELS</text>
<line x1="147.8" y1="188.2" x2="154.8" y2="188.2" stroke="#C9A24B" stroke-width="0.8" stroke-opacity="0.8"></line>
<text x="159.8" y="192.3" text-anchor="start" font-family="&#39;JetBrains Mono&#39;,&#39;Courier New&#39;,monospace" font-size="12" letter-spacing="1.5" fill="#7A0D14">ARCHITECT</text>
</g>
</svg>