<svg xmlns="http://www.w3.org/2000/svg" width="32" height="32" viewBox="0 0 32 32">
  <defs>
    <style>
      .cls-1 {
        fill: #c8102e;
      }

      .cls-2 {
        fill: #fff;
      }
    </style>
  </defs>
  <g id="Group_337" data-name="Group 337" transform="translate(-6184 -3665)">
    <circle id="Ellipse_8" data-name="Ellipse 8" class="cls-1" cx="16" cy="16" r="16" transform="translate(6184 3665)"/>
    <path id="Path_58" data-name="Path 58" class="cls-2" d="M14.179,15.124a.945.945,0,0,1-.945-.945v-.945a1.89,1.89,0,0,1,1.89-1.891h1.93a1.89,1.89,0,0,1,1.89,1.891v.945a.945.945,0,0,1-.945.945Zm-6.617,0a.945.945,0,0,1-.945-.945v-.945a1.89,1.89,0,0,1,1.89-1.891h1.93a1.89,1.89,0,0,1,1.89,1.891v.945a.945.945,0,0,1-.945.945Zm-6.617,0A.945.945,0,0,1,0,14.179v-.945a1.89,1.89,0,0,1,1.89-1.891h1.93a1.89,1.89,0,0,1,1.89,1.891v.945a.945.945,0,0,1-.945.945ZM14.219,8.507a1.89,1.89,0,1,1,1.89,1.89A1.89,1.89,0,0,1,14.219,8.507Zm-6.617,0a1.89,1.89,0,1,1,1.89,1.89A1.89,1.89,0,0,1,7.6,8.507Zm-6.617,0a1.89,1.89,0,1,1,1.89,1.89A1.89,1.89,0,0,1,.985,8.507ZM.946,1.5A1.5,1.5,0,0,1,2.443,0H16.464a1.5,1.5,0,0,1,1.5,1.5v4.9a2.825,2.825,0,0,0-1.89-.722V1.89H2.837V5.672a2.826,2.826,0,0,0-1.89.758h0Z" transform="translate(6190.527 3673.448)"/>
  </g>
</svg>
