<?xml version="1.0"?>
<svg xmlns="http://www.w3.org/2000/svg" width="1920" height="600" viewBox="0 0 1920 600" fill="none">
  <title>BNI Dreamers — Inner page header banner</title>
  <defs>
  <radialGradient id="gRed" cx="35%" cy="30%" r="75%"><stop offset="0%" stop-color="#E8434F"></stop><stop offset="55%" stop-color="#CF2030"></stop><stop offset="100%" stop-color="#A8161F"></stop></radialGradient>
  <radialGradient id="gMaroon" cx="35%" cy="30%" r="75%"><stop offset="0%" stop-color="#A8161F"></stop><stop offset="60%" stop-color="#7A0D14"></stop><stop offset="100%" stop-color="#560A0F"></stop></radialGradient>
  <linearGradient id="fadeR" x1="0" y1="0" x2="1" y2="0"><stop offset="0%" stop-color="#FAF8F5" stop-opacity="1"></stop><stop offset="55%" stop-color="#FAF8F5" stop-opacity="0"></stop></linearGradient></defs>
  <rect width="1920" height="600" fill="#FAF8F5"></rect>
  <g id="network" opacity="0.85"><g stroke-linecap="round"><line x1="1523.5" y1="315.6" x2="1643.5" y2="407.0" stroke="#CF2030" stroke-width="0.8" stroke-opacity="0.22"></line><line x1="1771.1" y1="319.8" x2="1643.5" y2="407.0" stroke="#CF2030" stroke-width="0.8" stroke-opacity="0.22"></line><line x1="1771.1" y1="319.8" x2="1862.0" y2="194.4" stroke="#CF2030" stroke-width="0.8" stroke-opacity="0.22"></line><line x1="1500.4" y1="478.6" x2="1643.5" y2="407.0" stroke="#CF2030" stroke-width="0.8" stroke-opacity="0.22"></line><line x1="1647.5" y1="123.6" x2="1473.9" y2="156.9" stroke="#CF2030" stroke-width="0.8" stroke-opacity="0.22"></line><line x1="1333.7" y1="69.2" x2="1473.9" y2="156.9" stroke="#CF2030" stroke-width="0.8" stroke-opacity="0.22"></line><line x1="1333.7" y1="69.2" x2="1164.0" y2="42.0" stroke="#CF2030" stroke-width="0.8" stroke-opacity="0.22"></line><line x1="1206.0" y1="477.5" x2="1341.9" y2="542.1" stroke="#CF2030" stroke-width="0.8" stroke-opacity="0.22"></line><line x1="1347.4" y1="301.0" x2="1523.5" y2="315.6" stroke="#C9A24B" stroke-width="0.8" stroke-opacity="0.4"></line><line x1="1347.4" y1="301.0" x2="1202.1" y2="189.1" stroke="#C9A24B" stroke-width="0.8" stroke-opacity="0.4"></line><line x1="1795.6" y1="539.9" x2="1643.5" y2="407.0" stroke="#CF2030" stroke-width="0.8" stroke-opacity="0.22"></line><line x1="1795.6" y1="539.9" x2="1771.1" y2="319.8" stroke="#CF2030" stroke-width="0.8" stroke-opacity="0.22"></line><line x1="1202.1" y1="189.1" x2="1156.2" y2="333.1" stroke="#CF2030" stroke-width="0.8" stroke-opacity="0.22"></line><line x1="1862.0" y1="194.4" x2="1815.4" y2="47.3" stroke="#CF2030" stroke-width="0.8" stroke-opacity="0.22"></line><line x1="1156.2" y1="333.1" x2="1206.0" y2="477.5" stroke="#CF2030" stroke-width="0.8" stroke-opacity="0.22"></line><line x1="1815.4" y1="47.3" x2="1647.5" y2="123.6" stroke="#CF2030" stroke-width="0.8" stroke-opacity="0.22"></line><line x1="1164.0" y1="42.0" x2="1202.1" y2="189.1" stroke="#CF2030" stroke-width="0.8" stroke-opacity="0.22"></line></g><g><circle cx="1523.5" cy="315.6" r="5.4" fill="url(#gRed)" opacity="0.7"></circle><circle cx="1771.1" cy="319.8" r="3.3" fill="url(#gRed)" opacity="0.7"></circle><circle cx="1500.4" cy="478.6" r="4.7" fill="url(#gRed)" opacity="0.7"></circle><circle cx="1647.5" cy="123.6" r="3.7" fill="url(#gRed)" opacity="0.7"></circle><circle cx="1333.7" cy="69.2" r="6.0" fill="url(#gRed)" opacity="0.7"></circle><circle cx="1206.0" cy="477.5" r="5.0" fill="url(#gRed)" opacity="0.7"></circle><circle cx="1347.4" cy="301.0" r="3.6" fill="#0E0E0E" stroke="#C9A24B" stroke-width="0.9" stroke-opacity="1"></circle><circle cx="1795.6" cy="539.9" r="5.4" fill="url(#gRed)" opacity="0.7"></circle><circle cx="1202.1" cy="189.1" r="5.7" fill="url(#gRed)" opacity="0.7"></circle><circle cx="1862.0" cy="194.4" r="4.8" fill="url(#gRed)" opacity="0.7"></circle><circle cx="1156.2" cy="333.1" r="6.9" fill="url(#gRed)" opacity="0.7"></circle><circle cx="1473.9" cy="156.9" r="4.3" fill="url(#gRed)" opacity="0.7"></circle><circle cx="1643.5" cy="407.0" r="5.7" fill="url(#gRed)" opacity="0.7"></circle><circle cx="1341.9" cy="542.1" r="5.5" fill="url(#gRed)" opacity="0.7"></circle><circle cx="1815.4" cy="47.3" r="3.8" fill="url(#gRed)" opacity="0.7"></circle><circle cx="1164.0" cy="42.0" r="4.8" fill="url(#gRed)" opacity="0.7"></circle></g></g>
  <rect width="1920" height="600" fill="url(#fadeR)"></rect>
  <g id="accents">
    <line x1="0" y1="599" x2="1920" y2="599" stroke="#C9A24B" stroke-width="1.4" stroke-opacity="0.8"></line>
    <line x1="119" y1="192" x2="119" y2="372" stroke="#C9A24B" stroke-width="1.4"></line>
  </g>
</svg>