<svg xmlns="http://www.w3.org/2000/svg" viewBox="0 0 172.15 120.51"><defs><style>.cls-1{fill:#707171;}</style></defs><g id="Layer_2" data-name="Layer 2"><g id="Layer_1-2" data-name="Layer 1"><path class="cls-1" d="M51.65,60.25A30.13,30.13,0,1,0,21.52,30.13,30.1,30.1,0,0,0,51.65,60.25ZM72.3,68.86H70.07a41.62,41.62,0,0,1-36.85,0H31a31,31,0,0,0-31,31v7.75a12.92,12.92,0,0,0,12.91,12.91H90.38a12.92,12.92,0,0,0,12.91-12.91V99.85A31,31,0,0,0,72.3,68.86Zm56.81-8.61a25.82,25.82,0,1,0-25.82-25.82A25.83,25.83,0,0,0,129.11,60.25ZM142,68.86h-1a34,34,0,0,1-23.78,0h-1a30,30,0,0,0-15,4.14A39.41,39.41,0,0,1,111.9,99.85v10.33c0,.59-.14,1.15-.16,1.72h47.5A12.91,12.91,0,0,0,172.15,99,30.11,30.11,0,0,0,142,68.86Z"/></g></g></svg>