<svg xmlns="http://www.w3.org/2000/svg" viewBox="0 0 173.95 139.04"><defs><style>.cls-1{fill:#707171;}</style></defs><g id="Layer_2" data-name="Layer 2"><g id="Layer_1-2" data-name="Layer 1"><path class="cls-1" d="M147.81,26.43c0-2.53-.11-5.06,0-7.59,0-1.21-.35-1.5-1.52-1.49-5.42.06-10.85,0-16.28,0H29.56c-3.36,0-3.36,0-3.55,3.25-1.88.56-3.83.18-5.69.06-3.08-.2-6.12.29-9.17.11-.83-.05-1.7.12-2.4-.53-.05-3-.39-6,.16-9C10,5.55,13.32,1.74,19.14.3c.15,0,.28-.2.41-.3H154.27A36.73,36.73,0,0,1,158,1.6a13,13,0,0,1,7,10.91c.27,4.62,0,9.28,0,13.92a1.32,1.32,0,0,1-.84.25c-5.19,0-10.39-.14-15.58,0A1.3,1.3,0,0,1,147.81,26.43Z"/><path class="cls-1" d="M0,118.71c1-2.86,1.9-5.77,4-8.17A16.92,16.92,0,0,1,17,104.26c6-.1,11.94-.05,17.91,0a17.48,17.48,0,0,1,17.2,17.19c0,2.89,0,5.79,0,8.68A8.66,8.66,0,0,1,43.2,139c-10.85,0-21.71-.13-32.57.07-5.32.1-8.93-1.8-10.63-6.94Z"/><path class="cls-1" d="M86.75,139c-5.61,0-11.22,0-16.83,0s-9.13-3.61-9.06-9c0-3.91-.4-7.83.33-11.72a17.21,17.21,0,0,1,16.77-14q9,0,17.92,0A17.51,17.51,0,0,1,113,121.35c0,2.89,0,5.78,0,8.68a8.69,8.69,0,0,1-9,8.95C98.21,139,92.48,139,86.75,139Z"/><path class="cls-1" d="M172.3,114.73a10.64,10.64,0,0,1,1.26,4.11,60.87,60.87,0,0,1,.11,12.8,8.38,8.38,0,0,1-8.51,7.33q-17.46,0-34.9,0a8.42,8.42,0,0,1-8.56-8.61c0-4.08-.4-8.19.34-12.25a9.68,9.68,0,0,1,1-3c2-1,4.15-.31,6.23-.47,5.22-.4,10.45.34,15.68-.29,2.2-.26,4.45.26,6.67.21,4.63-.09,9.27,0,13.89,0C167.75,114.5,170.06,114.09,172.3,114.73Z"/><path class="cls-1" d="M147.57,95.55A17.37,17.37,0,1,1,148,60.81a17.51,17.51,0,0,1,17.17,17.6A17.32,17.32,0,0,1,147.57,95.55Z"/><path class="cls-1" d="M26,95.55a17.37,17.37,0,1,1,.28-34.74A17.52,17.52,0,0,1,43.46,78.36,17.32,17.32,0,0,1,26,95.55Z"/><path class="cls-1" d="M103.85,74.55a17.17,17.17,0,0,1-7.27,18.09A17.72,17.72,0,0,1,77,92.58a17.19,17.19,0,0,1-7-18c.92-1.32,2.37-1,3.62-1,3.6,0,7.21.55,10.8.11,5.16-.64,10.31.37,15.47-.13C101.16,73.38,102.8,73.17,103.85,74.55Z"/><path class="cls-1" d="M147.81,26.43c2.16-.71,4.39-.3,6.59-.36,2.68-.07,5.35,0,8,0a7.61,7.61,0,0,1,2.64.38V58.72A65.73,65.73,0,0,0,159.16,55,25.6,25.6,0,0,0,149,52.17c-.83-.05-1.27-.16-1.26-1.19C147.78,42.8,147.79,34.61,147.81,26.43Z"/><path class="cls-1" d="M172.3,114.73a25.69,25.69,0,0,1-6.39.21,40.64,40.64,0,0,0-4.35.15c-4.52,0-9.06.2-13.56-.09s-9.26.12-13.89,0c-3.64-.1-7.38-.16-11.07.07a16.88,16.88,0,0,1,15.27-10.81c6.27-.08,12.55-.24,18.8,0C164.21,104.61,169.32,108.23,172.3,114.73Z"/><path class="cls-1" d="M103.85,74.55a12.37,12.37,0,0,0-5.07-.44,16.38,16.38,0,0,1-4,.06,101.8,101.8,0,0,0-13.3.2,52.13,52.13,0,0,1-7.37-.28,10.67,10.67,0,0,0-4.17.46A17.17,17.17,0,0,1,85.79,60.82a17.55,17.55,0,0,1,17.79,12.51C103.69,73.73,103.76,74.14,103.85,74.55Z"/><path class="cls-1" d="M8.75,20.27c2.69-.13,5.42-.28,8.06-.2,3,.09,6.19-.4,9.2.56V34a1.41,1.41,0,0,1-1.17.36c-4.15-.38-8.32,0-12.48-.19-1.25-.06-2.55,0-3.61-.89Z"/><path class="cls-1" d="M8.75,33.3c5.73.91,11.54-.17,17.26.72V46.33a1.1,1.1,0,0,1-.81.34c-5.21-.31-10.42,0-15.64,0a1.19,1.19,0,0,1-.81-.34Z"/><path class="cls-1" d="M8.75,46.33a109.29,109.29,0,0,1,17.26,0c0,1.74.61,3.8-.11,5.15s-3.09.67-4.7,1.05a28,28,0,0,0-10.72,4.93L8.75,58.75Z"/></g></g></svg>