<?xml version="1.0"?>
<svg xmlns="http://www.w3.org/2000/svg" width="800" height="1000" viewBox="0 0 800 1000" fill="none">
  <title>BNI Dreamers — Referral Network</title>
  <defs>
    <radialGradient id="gRed" cx="35%" cy="30%" r="75%">
      <stop offset="0%" stop-color="#E8434F"></stop>
      <stop offset="55%" stop-color="#CF2030"></stop>
      <stop offset="100%" stop-color="#A8161F"></stop>
    </radialGradient>
    <radialGradient id="gMaroon" cx="35%" cy="30%" r="75%">
      <stop offset="0%" stop-color="#A8161F"></stop>
      <stop offset="60%" stop-color="#7A0D14"></stop>
      <stop offset="100%" stop-color="#560A0F"></stop>
    </radialGradient>
    <radialGradient id="gHalo" cx="50%" cy="50%" r="50%">
      <stop offset="0%" stop-color="#CF2030" stop-opacity="0.28"></stop>
      <stop offset="100%" stop-color="#CF2030" stop-opacity="0"></stop>
    </radialGradient>
    <linearGradient id="gLink" x1="0" y1="0" x2="1" y2="1">
      <stop offset="0%" stop-color="#C9A24B"></stop>
      <stop offset="100%" stop-color="#CF2030"></stop>
    </linearGradient></defs>
  <g id="halos"><circle cx="476.6" cy="348.3" r="29.0" fill="url(#gHalo)"></circle>
<circle cx="372.4" cy="621.1" r="30.3" fill="url(#gHalo)"></circle>
<circle cx="201.2" cy="667.9" r="28.0" fill="url(#gHalo)"></circle>
</g>
  <g id="links" stroke-linecap="round"><line x1="163.8" y1="163.3" x2="297.9" y2="277.1" stroke="#CF2030" stroke-width="0.9" stroke-opacity="0.33"></line>
<line x1="163.8" y1="163.3" x2="476.6" y2="348.3" stroke="url(#gLink)" stroke-width="0.9" stroke-opacity="0.26"></line>
<line x1="476.6" y1="348.3" x2="596.9" y2="478.3" stroke="#CF2030" stroke-width="0.9" stroke-opacity="0.33"></line>
<line x1="476.6" y1="348.3" x2="297.9" y2="277.1" stroke="#CF2030" stroke-width="0.9" stroke-opacity="0.33"></line>
<line x1="476.6" y1="348.3" x2="681.6" y2="276.1" stroke="#CF2030" stroke-width="0.9" stroke-opacity="0.32"></line>
<line x1="407.0" y1="853.7" x2="372.4" y2="621.1" stroke="#CF2030" stroke-width="0.9" stroke-opacity="0.31"></line>
<line x1="407.0" y1="853.7" x2="160.0" y2="878.7" stroke="#CF2030" stroke-width="0.9" stroke-opacity="0.31"></line>
<line x1="589.1" y1="117.0" x2="681.6" y2="276.1" stroke="#CF2030" stroke-width="0.9" stroke-opacity="0.33"></line>
<line x1="589.1" y1="117.0" x2="476.6" y2="348.3" stroke="#CF2030" stroke-width="0.9" stroke-opacity="0.30"></line>
<line x1="160.0" y1="878.7" x2="201.2" y2="667.9" stroke="#CF2030" stroke-width="0.9" stroke-opacity="0.32"></line>
<line x1="596.9" y1="478.3" x2="681.6" y2="276.1" stroke="#CF2030" stroke-width="0.9" stroke-opacity="0.32"></line>
<line x1="596.9" y1="478.3" x2="658.7" y2="706.8" stroke="#C9A24B" stroke-width="0.7" stroke-opacity="0.50"></line>
<line x1="372.4" y1="621.1" x2="201.2" y2="667.9" stroke="#CF2030" stroke-width="0.9" stroke-opacity="0.33"></line>
<line x1="201.2" y1="667.9" x2="407.0" y2="853.7" stroke="#CF2030" stroke-width="0.9" stroke-opacity="0.30"></line>
<line x1="658.7" y1="706.8" x2="407.0" y2="853.7" stroke="#C9A24B" stroke-width="0.7" stroke-opacity="0.50"></line>
<line x1="201.2" y1="667.9" x2="681.6" y2="276.1" stroke="url(#gLink)" stroke-width="0.9" stroke-opacity="0.18"></line>
</g>
  <g id="nodes"><circle cx="163.8" cy="163.3" r="7.6" fill="url(#gRed)"></circle>
<circle cx="163.8" cy="163.3" r="9.8" fill="none" stroke="#C9A24B" stroke-width="0.6" stroke-opacity="0.55"></circle>
<circle cx="476.6" cy="348.3" r="7.2" fill="url(#gRed)"></circle>
<circle cx="476.6" cy="348.3" r="9.4" fill="none" stroke="#C9A24B" stroke-width="0.6" stroke-opacity="0.55"></circle>
<circle cx="297.9" cy="277.1" r="5.2" fill="url(#gRed)"></circle>
<circle cx="407.0" cy="853.7" r="7.6" fill="url(#gRed)"></circle>
<circle cx="407.0" cy="853.7" r="9.8" fill="none" stroke="#C9A24B" stroke-width="0.6" stroke-opacity="0.55"></circle>
<circle cx="589.1" cy="117.0" r="6.6" fill="url(#gMaroon)"></circle>
<circle cx="589.1" cy="117.0" r="8.8" fill="none" stroke="#C9A24B" stroke-width="0.6" stroke-opacity="0.55"></circle>
<circle cx="160.0" cy="878.7" r="4.8" fill="url(#gMaroon)"></circle>
<circle cx="596.9" cy="478.3" r="7.2" fill="url(#gMaroon)"></circle>
<circle cx="596.9" cy="478.3" r="9.4" fill="none" stroke="#C9A24B" stroke-width="0.6" stroke-opacity="0.55"></circle>
<circle cx="372.4" cy="621.1" r="7.6" fill="url(#gRed)"></circle>
<circle cx="372.4" cy="621.1" r="9.8" fill="none" stroke="#C9A24B" stroke-width="0.6" stroke-opacity="0.55"></circle>
<circle cx="681.6" cy="276.1" r="6.3" fill="url(#gRed)"></circle>
<circle cx="201.2" cy="667.9" r="7.0" fill="url(#gMaroon)"></circle>
<circle cx="201.2" cy="667.9" r="9.2" fill="none" stroke="#C9A24B" stroke-width="0.6" stroke-opacity="0.55"></circle>
<circle cx="658.7" cy="706.8" r="3.5" fill="#0E0E0E" stroke="#C9A24B" stroke-width="1.1"></circle>
<circle cx="658.7" cy="706.8" r="1.1" fill="#C9A24B"></circle>
</g>
  <g id="labels"><line x1="382.0" y1="621.1" x2="389.0" y2="621.1" stroke="#C9A24B" stroke-width="0.8" stroke-opacity="0.8"></line>
<text x="394.0" y="625.5" text-anchor="start" font-family="&#39;JetBrains Mono&#39;,&#39;Courier New&#39;,monospace" font-size="13" letter-spacing="1.5" fill="#7A0D14">COMMERCIAL REALTOR</text>
<line x1="416.6" y1="853.7" x2="423.6" y2="853.7" stroke="#C9A24B" stroke-width="0.8" stroke-opacity="0.8"></line>
<text x="428.6" y="858.1" text-anchor="start" font-family="&#39;JetBrains Mono&#39;,&#39;Courier New&#39;,monospace" font-size="13" letter-spacing="1.5" fill="#7A0D14">INSURANCE</text>
<line x1="173.4" y1="163.3" x2="180.4" y2="163.3" stroke="#C9A24B" stroke-width="0.8" stroke-opacity="0.8"></line>
<text x="185.4" y="167.7" text-anchor="start" font-family="&#39;JetBrains Mono&#39;,&#39;Courier New&#39;,monospace" font-size="13" letter-spacing="1.5" fill="#7A0D14">SOLAR</text>
<line x1="485.9" y1="348.3" x2="492.9" y2="348.3" stroke="#C9A24B" stroke-width="0.8" stroke-opacity="0.8"></line>
<text x="497.9" y="352.7" text-anchor="start" font-family="&#39;JetBrains Mono&#39;,&#39;Courier New&#39;,monospace" font-size="13" letter-spacing="1.5" fill="#7A0D14">MODULAR FURNITURE</text>
</g>
</svg>