<?xml version="1.0"?>
<svg xmlns="http://www.w3.org/2000/svg" width="1920" height="700" viewBox="0 0 1920 700" fill="none">
  <title>BNI Dreamers — Dark stats band</title>
  <defs>
    <radialGradient id="sRed" cx="40%" cy="35%" r="70%"><stop offset="0%" stop-color="#CF2030"></stop><stop offset="100%" stop-color="#7A0D14"></stop></radialGradient>
    <radialGradient id="cL" cx="0%" cy="100%" r="90%"><stop offset="0%" stop-color="#7A0D14" stop-opacity="0.55"></stop><stop offset="60%" stop-color="#7A0D14" stop-opacity="0"></stop></radialGradient>
    <radialGradient id="cR" cx="100%" cy="0%" r="90%"><stop offset="0%" stop-color="#A8161F" stop-opacity="0.45"></stop><stop offset="60%" stop-color="#A8161F" stop-opacity="0"></stop></radialGradient>
    <radialGradient id="ctr" cx="50%" cy="50%" r="55%"><stop offset="0%" stop-color="#0E0E0E" stop-opacity="0.9"></stop><stop offset="100%" stop-color="#0E0E0E" stop-opacity="0"></stop></radialGradient>
  </defs>
  <rect width="1920" height="700" fill="#0E0E0E"></rect>
  <rect width="1920" height="700" fill="url(#cL)"></rect>
  <rect width="1920" height="700" fill="url(#cR)"></rect>
  <g id="network" opacity="0.9"><g stroke-linecap="round"><line x1="404.9" y1="508.2" x2="427.5" y2="364.3" stroke="#CF2030" stroke-width="0.8" stroke-opacity="0.3"></line><line x1="102.6" y1="403.5" x2="196.0" y2="283.9" stroke="#CF2030" stroke-width="0.8" stroke-opacity="0.3"></line><line x1="102.6" y1="403.5" x2="217.6" y2="511.8" stroke="#C9A24B" stroke-width="0.8" stroke-opacity="0.32"></line><line x1="512.8" y1="193.1" x2="353.1" y2="225.9" stroke="#CF2030" stroke-width="0.8" stroke-opacity="0.3"></line><line x1="512.8" y1="193.1" x2="390.3" y2="68.0" stroke="#CF2030" stroke-width="0.8" stroke-opacity="0.3"></line><line x1="390.3" y1="68.0" x2="353.1" y2="225.9" stroke="#CF2030" stroke-width="0.8" stroke-opacity="0.3"></line><line x1="186.8" y1="71.0" x2="80.8" y2="191.7" stroke="#CF2030" stroke-width="0.8" stroke-opacity="0.3"></line><line x1="186.8" y1="71.0" x2="390.3" y2="68.0" stroke="#CF2030" stroke-width="0.8" stroke-opacity="0.3"></line><line x1="295.0" y1="635.2" x2="217.6" y2="511.8" stroke="#C9A24B" stroke-width="0.8" stroke-opacity="0.32"></line><line x1="295.0" y1="635.2" x2="404.9" y2="508.2" stroke="#C9A24B" stroke-width="0.8" stroke-opacity="0.32"></line><line x1="196.0" y1="283.9" x2="80.8" y2="191.7" stroke="#CF2030" stroke-width="0.8" stroke-opacity="0.3"></line><line x1="353.1" y1="225.9" x2="427.5" y2="364.3" stroke="#CF2030" stroke-width="0.8" stroke-opacity="0.3"></line></g><g><circle cx="404.9" cy="508.2" r="3.9" fill="url(#sRed)" opacity="0.85"></circle><circle cx="102.6" cy="403.5" r="5.9" fill="url(#sRed)" opacity="0.85"></circle><circle cx="512.8" cy="193.1" r="6.1" fill="url(#sRed)" opacity="0.85"></circle><circle cx="390.3" cy="68.0" r="4.9" fill="url(#sRed)" opacity="0.85"></circle><circle cx="186.8" cy="71.0" r="6.2" fill="url(#sRed)" opacity="0.85"></circle><circle cx="295.0" cy="635.2" r="2.2" fill="#C9A24B" opacity="0.85"></circle><circle cx="196.0" cy="283.9" r="3.9" fill="url(#sRed)" opacity="0.85"></circle><circle cx="217.6" cy="511.8" r="3.0" fill="#C9A24B" opacity="0.85"></circle><circle cx="427.5" cy="364.3" r="4.0" fill="url(#sRed)" opacity="0.85"></circle><circle cx="80.8" cy="191.7" r="6.6" fill="url(#sRed)" opacity="0.85"></circle><circle cx="353.1" cy="225.9" r="6.6" fill="url(#sRed)" opacity="0.85"></circle></g><g stroke-linecap="round"><line x1="1559.1" y1="410.0" x2="1415.5" y2="502.3" stroke="#CF2030" stroke-width="0.8" stroke-opacity="0.3"></line><line x1="1559.1" y1="410.0" x2="1638.1" y2="247.0" stroke="#C9A24B" stroke-width="0.8" stroke-opacity="0.32"></line><line x1="1761.9" y1="368.7" x2="1857.5" y2="474.2" stroke="#CF2030" stroke-width="0.8" stroke-opacity="0.3"></line><line x1="1673.8" y1="111.1" x2="1638.1" y2="247.0" stroke="#C9A24B" stroke-width="0.8" stroke-opacity="0.32"></line><line x1="1415.5" y1="502.3" x2="1377.7" y2="357.8" stroke="#CF2030" stroke-width="0.8" stroke-opacity="0.3"></line><line x1="1458.6" y1="178.7" x2="1638.1" y2="247.0" stroke="#C9A24B" stroke-width="0.8" stroke-opacity="0.32"></line><line x1="1458.6" y1="178.7" x2="1377.7" y2="357.8" stroke="#CF2030" stroke-width="0.8" stroke-opacity="0.3"></line><line x1="1835.2" y1="200.3" x2="1761.9" y2="368.7" stroke="#CF2030" stroke-width="0.8" stroke-opacity="0.3"></line><line x1="1835.2" y1="200.3" x2="1673.8" y2="111.1" stroke="#CF2030" stroke-width="0.8" stroke-opacity="0.3"></line><line x1="1662.2" y1="577.4" x2="1814.2" y2="639.6" stroke="#CF2030" stroke-width="0.8" stroke-opacity="0.3"></line><line x1="1814.2" y1="639.6" x2="1857.5" y2="474.2" stroke="#CF2030" stroke-width="0.8" stroke-opacity="0.3"></line><line x1="1638.1" y1="247.0" x2="1761.9" y2="368.7" stroke="#C9A24B" stroke-width="0.8" stroke-opacity="0.32"></line><line x1="1377.7" y1="357.8" x2="1559.1" y2="410.0" stroke="#CF2030" stroke-width="0.8" stroke-opacity="0.3"></line></g><g><circle cx="1559.1" cy="410.0" r="5.1" fill="url(#sRed)" opacity="0.85"></circle><circle cx="1761.9" cy="368.7" r="5.9" fill="url(#sRed)" opacity="0.85"></circle><circle cx="1673.8" cy="111.1" r="6.8" fill="url(#sRed)" opacity="0.85"></circle><circle cx="1415.5" cy="502.3" r="4.0" fill="url(#sRed)" opacity="0.85"></circle><circle cx="1458.6" cy="178.7" r="6.2" fill="url(#sRed)" opacity="0.85"></circle><circle cx="1835.2" cy="200.3" r="6.3" fill="url(#sRed)" opacity="0.85"></circle><circle cx="1662.2" cy="577.4" r="4.5" fill="url(#sRed)" opacity="0.85"></circle><circle cx="1814.2" cy="639.6" r="5.3" fill="url(#sRed)" opacity="0.85"></circle><circle cx="1638.1" cy="247.0" r="2.0" fill="#C9A24B" opacity="0.85"></circle><circle cx="1377.7" cy="357.8" r="3.7" fill="url(#sRed)" opacity="0.85"></circle><circle cx="1857.5" cy="474.2" r="5.1" fill="url(#sRed)" opacity="0.85"></circle></g></g>
  <rect width="1920" height="700" fill="url(#ctr)"></rect>
  <line x1="0" y1="1" x2="1920" y2="1" stroke="#C9A24B" stroke-width="1.2" stroke-opacity="0.55"></line>
  <line x1="0" y1="699" x2="1920" y2="699" stroke="#C9A24B" stroke-width="1.2" stroke-opacity="0.55"></line>
</svg>