<?xml version="1.0"?>
<svg xmlns="http://www.w3.org/2000/svg" width="800" height="900" viewBox="0 0 800 900" fill="none">
  <title>BNI Dreamers — Dark stats band</title>
  <defs>
    <radialGradient id="sRed" cx="40%" cy="35%" r="70%"><stop offset="0%" stop-color="#CF2030"></stop><stop offset="100%" stop-color="#7A0D14"></stop></radialGradient>
    <radialGradient id="cL" cx="0%" cy="100%" r="90%"><stop offset="0%" stop-color="#7A0D14" stop-opacity="0.55"></stop><stop offset="60%" stop-color="#7A0D14" stop-opacity="0"></stop></radialGradient>
    <radialGradient id="cR" cx="100%" cy="0%" r="90%"><stop offset="0%" stop-color="#A8161F" stop-opacity="0.45"></stop><stop offset="60%" stop-color="#A8161F" stop-opacity="0"></stop></radialGradient>
    <radialGradient id="ctr" cx="50%" cy="50%" r="55%"><stop offset="0%" stop-color="#0E0E0E" stop-opacity="0.9"></stop><stop offset="100%" stop-color="#0E0E0E" stop-opacity="0"></stop></radialGradient>
  </defs>
  <rect width="800" height="900" fill="#0E0E0E"></rect>
  <rect width="800" height="900" fill="url(#cL)"></rect>
  <rect width="800" height="900" fill="url(#cR)"></rect>
  <g id="network" opacity="0.9"><g stroke-linecap="round"><line x1="256.7" y1="128.6" x2="115.5" y2="131.3" stroke="#C9A24B" stroke-width="0.8" stroke-opacity="0.32"></line><line x1="256.7" y1="128.6" x2="358.7" y2="243.1" stroke="#C9A24B" stroke-width="0.8" stroke-opacity="0.32"></line><line x1="68.1" y1="390.0" x2="43.1" y2="251.5" stroke="#CF2030" stroke-width="0.8" stroke-opacity="0.3"></line><line x1="115.5" y1="131.3" x2="43.1" y2="251.5" stroke="#CF2030" stroke-width="0.8" stroke-opacity="0.3"></line><line x1="261.2" y1="348.2" x2="358.7" y2="243.1" stroke="#CF2030" stroke-width="0.8" stroke-opacity="0.3"></line><line x1="359.4" y1="462.9" x2="261.2" y2="348.2" stroke="#CF2030" stroke-width="0.8" stroke-opacity="0.3"></line><line x1="184.3" y1="491.1" x2="68.1" y2="390.0" stroke="#CF2030" stroke-width="0.8" stroke-opacity="0.3"></line></g><g><circle cx="256.7" cy="128.6" r="2.8" fill="#C9A24B" opacity="0.85"></circle><circle cx="68.1" cy="390.0" r="4.1" fill="url(#sRed)" opacity="0.85"></circle><circle cx="115.5" cy="131.3" r="5.5" fill="url(#sRed)" opacity="0.85"></circle><circle cx="261.2" cy="348.2" r="5.2" fill="url(#sRed)" opacity="0.85"></circle><circle cx="359.4" cy="462.9" r="5.5" fill="url(#sRed)" opacity="0.85"></circle><circle cx="184.3" cy="491.1" r="5.7" fill="url(#sRed)" opacity="0.85"></circle><circle cx="358.7" cy="243.1" r="6.0" fill="url(#sRed)" opacity="0.85"></circle><circle cx="43.1" cy="251.5" r="5.1" fill="url(#sRed)" opacity="0.85"></circle></g><g stroke-linecap="round"><line x1="715.7" y1="800.9" x2="626.2" y2="692.9" stroke="#CF2030" stroke-width="0.8" stroke-opacity="0.3"></line><line x1="490.8" y1="599.7" x2="593.6" y2="484.3" stroke="#CF2030" stroke-width="0.8" stroke-opacity="0.3"></line><line x1="735.3" y1="569.9" x2="726.0" y2="413.9" stroke="#CF2030" stroke-width="0.8" stroke-opacity="0.3"></line><line x1="539.9" y1="830.0" x2="626.2" y2="692.9" stroke="#CF2030" stroke-width="0.8" stroke-opacity="0.3"></line><line x1="593.6" y1="484.3" x2="726.0" y2="413.9" stroke="#CF2030" stroke-width="0.8" stroke-opacity="0.3"></line><line x1="593.6" y1="484.3" x2="445.7" y2="451.3" stroke="#C9A24B" stroke-width="0.8" stroke-opacity="0.32"></line></g><g><circle cx="715.7" cy="800.9" r="4.7" fill="url(#sRed)" opacity="0.85"></circle><circle cx="490.8" cy="599.7" r="6.5" fill="url(#sRed)" opacity="0.85"></circle><circle cx="735.3" cy="569.9" r="6.3" fill="url(#sRed)" opacity="0.85"></circle><circle cx="539.9" cy="830.0" r="3.0" fill="url(#sRed)" opacity="0.85"></circle><circle cx="593.6" cy="484.3" r="6.7" fill="url(#sRed)" opacity="0.85"></circle><circle cx="445.7" cy="451.3" r="2.9" fill="#C9A24B" opacity="0.85"></circle><circle cx="626.2" cy="692.9" r="4.6" fill="url(#sRed)" opacity="0.85"></circle><circle cx="726.0" cy="413.9" r="6.5" fill="url(#sRed)" opacity="0.85"></circle></g></g>
  <rect width="800" height="900" fill="url(#ctr)"></rect>
  <line x1="0" y1="1" x2="800" y2="1" stroke="#C9A24B" stroke-width="1.2" stroke-opacity="0.55"></line>
  <line x1="0" y1="899" x2="800" y2="899" stroke="#C9A24B" stroke-width="1.2" stroke-opacity="0.55"></line>
</svg>